<svg width="35" height="40" viewBox="0 0 35 40" fill="none" xmlns="http://www.w3.org/2000/svg">
<path d="M14.2784 1.83433C16.1722 0.704367 18.5332 0.704368 20.427 1.83433L31.1869 8.25436C33.0013 9.33695 34.1126 11.2941 34.1126 13.4069V26.5931C34.1126 28.7059 33.0013 30.6631 31.1869 31.7456L20.427 38.1657C18.5332 39.2956 16.1722 39.2956 14.2784 38.1657L3.51845 31.7456C1.70404 30.6631 0.592768 28.7059 0.592768 26.5931V13.4069C0.592768 11.2941 1.70404 9.33695 3.51845 8.25436L14.2784 1.83433Z" fill="#0CAF60"/>
<path d="M23.1907 14.65H22.8682L20.1427 11.8333C19.925 11.6083 19.5702 11.6083 19.3444 11.8333C19.1267 12.0583 19.1267 12.425 19.3444 12.6583L21.2716 14.65H13.4338L15.361 12.6583C15.5787 12.4333 15.5787 12.0666 15.361 11.8333C15.1433 11.6083 14.7885 11.6083 14.5627 11.8333L11.8452 14.65H11.5227C10.797 14.65 9.28906 14.65 9.28906 16.7833C9.28906 17.5916 9.45033 18.125 9.78901 18.475C9.98253 18.6833 10.2164 18.7916 10.4664 18.85C10.7002 18.9083 10.9502 18.9166 11.1921 18.9166H23.5133C23.7633 18.9166 23.9971 18.9 24.2229 18.85C24.9002 18.6833 25.4163 18.1833 25.4163 16.7833C25.4163 14.65 23.9084 14.65 23.1907 14.65Z" fill="white"/>
<path d="M23.0376 20H11.6033C11.1034 20 10.7244 20.4583 10.805 20.9667L11.4824 25.25C11.7082 26.6833 12.3129 28.3333 14.9981 28.3333H19.5218C22.2393 28.3333 22.7231 26.925 23.0134 25.35L23.8278 20.9917C23.9245 20.475 23.5456 20 23.0376 20ZM17.3527 26.25C15.4658 26.25 13.9257 24.6583 13.9257 22.7083C13.9257 22.3667 14.1998 22.0833 14.5304 22.0833C14.861 22.0833 15.1352 22.3667 15.1352 22.7083C15.1352 23.975 16.127 25 17.3527 25C18.5784 25 19.5702 23.975 19.5702 22.7083C19.5702 22.3667 19.8444 22.0833 20.175 22.0833C20.5056 22.0833 20.7797 22.3667 20.7797 22.7083C20.7797 24.6583 19.2396 26.25 17.3527 26.25Z" fill="white"/>
</svg>
