<svg id="fi_2778349" enable-background="new 0 0 510.592 510.592" height="512" viewBox="0 0 510.592 510.592" width="512" xmlns="http://www.w3.org/2000/svg"><g><path d="m102.39 128.287c-3.64 0-6.591 2.951-6.591 6.591s2.951 6.591 6.591 6.591 6.591-2.951 6.591-6.591-2.951-6.591-6.591-6.591z"></path><path d="m128.822 141.469c3.64 0 6.591-2.951 6.591-6.591s-2.951-6.591-6.591-6.591-6.591 2.951-6.591 6.591 2.951 6.591 6.591 6.591z"></path><path d="m153.497 141.469c3.64 0 6.591-2.951 6.591-6.591s-2.951-6.591-6.591-6.591-6.591 2.951-6.591 6.591c-.001 3.64 2.95 6.591 6.591 6.591z"></path><circle cx="102.39" cy="83.774" r="6.591"></circle><path d="m128.822 90.366c3.64 0 6.591-2.951 6.591-6.591s-2.951-6.591-6.591-6.591-6.591 2.951-6.591 6.591 2.951 6.591 6.591 6.591z"></path><circle cx="153.497" cy="83.774" r="6.591"></circle><path d="m102.39 39.262c3.64 0 6.591-2.951 6.591-6.591s-2.951-6.591-6.591-6.591-6.591 2.951-6.591 6.591c-.001 3.64 2.95 6.591 6.591 6.591z"></path><path d="m128.822 39.262c3.64 0 6.591-2.951 6.591-6.591s-2.951-6.591-6.591-6.591-6.591 2.951-6.591 6.591 2.951 6.591 6.591 6.591z"></path><path d="m153.497 39.262c3.64 0 6.591-2.951 6.591-6.591s-2.951-6.591-6.591-6.591-6.591 2.951-6.591 6.591c-.001 3.64 2.95 6.591 6.591 6.591z"></path><path d="m327.614 141.469c3.64 0 6.591-2.951 6.591-6.591s-2.951-6.591-6.591-6.591-6.591 2.951-6.591 6.591c-.001 3.64 2.951 6.591 6.591 6.591z"></path><path d="m354.046 141.469c3.64 0 6.591-2.951 6.591-6.591s-2.951-6.591-6.591-6.591-6.591 2.951-6.591 6.591 2.951 6.591 6.591 6.591z"></path><path d="m378.721 141.469c3.64 0 6.591-2.951 6.591-6.591s-2.951-6.591-6.591-6.591-6.591 2.951-6.591 6.591c-.001 3.64 2.951 6.591 6.591 6.591z"></path><path d="m327.614 90.366c3.64 0 6.591-2.951 6.591-6.591s-2.951-6.591-6.591-6.591-6.591 2.951-6.591 6.591c-.001 3.64 2.951 6.591 6.591 6.591z"></path><circle cx="354.046" cy="83.774" r="6.591"></circle><circle cx="378.721" cy="83.774" r="6.591"></circle><path d="m327.614 39.262c3.64 0 6.591-2.951 6.591-6.591s-2.951-6.591-6.591-6.591-6.591 2.951-6.591 6.591c-.001 3.64 2.951 6.591 6.591 6.591z"></path><path d="m354.046 39.262c3.64 0 6.591-2.951 6.591-6.591s-2.951-6.591-6.591-6.591-6.591 2.951-6.591 6.591 2.951 6.591 6.591 6.591z"></path><path d="m378.721 39.262c3.64 0 6.591-2.951 6.591-6.591s-2.951-6.591-6.591-6.591-6.591 2.951-6.591 6.591c-.001 3.64 2.951 6.591 6.591 6.591z"></path><path d="m122.872 274.915h98.267c8.476 0 15.371-6.896 15.371-15.371v-14.923c0-8.476-6.895-15.371-15.371-15.371h-98.267c-8.477 0-15.372 6.895-15.372 15.371v14.923c-.001 8.476 6.895 15.371 15.372 15.371zm-.373-30.294c0-.205.167-.371.372-.371h98.267c.205 0 .371.167.371.371v14.923c0 .205-.166.371-.371.371h-98.267c-.205 0-.372-.167-.372-.371z"></path><path d="m107.293 308.674v14.922c0 8.476 6.896 15.372 15.371 15.372h273.267c8.476 0 15.371-6.896 15.371-15.372v-14.922c0-8.476-6.895-15.371-15.371-15.371h-273.267c-8.476 0-15.371 6.895-15.371 15.371zm289.009 0v14.922c0 .205-.166.372-.371.372h-273.267c-.205 0-.371-.167-.371-.372v-14.922c0-.205.166-.371.371-.371h273.267c.205 0 .371.166.371.371z"></path><path d="m464.372 79.274h-10.606v-6.168c0-5.735-2.208-10.963-5.815-14.883 3.608-3.921 5.815-9.148 5.815-14.884v-21.337c0-12.132-9.87-22.002-22.002-22.002h-119.105c-12.132 0-22.002 9.87-22.002 22.002v21.337c0 5.735 2.208 10.963 5.815 14.884-3.608 3.92-5.815 9.148-5.815 14.883v6.168h-62.115v-6.168c0-5.735-2.208-10.963-5.815-14.883 3.608-3.921 5.815-9.148 5.815-14.884v-21.337c0-12.132-9.871-22.002-22.002-22.002h-119.106c-12.132 0-22.002 9.87-22.002 22.002v21.337c0 5.735 2.208 10.963 5.815 14.884-3.608 3.92-5.815 9.148-5.815 14.883v6.319c-.485-.098-19.212-.151-19.212-.151-16.241 0-29.454 13.213-29.454 29.454v194.485c0 16.241 13.213 29.454 29.454 29.454h24.971v94.348c0 10.979 8.932 19.911 19.91 19.911h114.885v22.107h-10.592c-12.427 0-22.536 15.11-22.536 27.536v6.522c0 4.142 3.357 7.5 7.5 7.5h158.482c4.143 0 7.5-3.358 7.5-7.5v-6.522c0-12.426-10.109-27.536-22.536-27.536h-10.592v-22.107h114.885c10.979 0 19.91-8.932 19.91-19.911v-94.348h16.365c16.24 0 29.453-13.213 29.453-29.454v-194.485c.001-16.241-13.212-29.454-29.453-29.454zm-158.715-57.272c0-3.861 3.141-7.002 7.002-7.002h119.105c3.861 0 7.002 3.141 7.002 7.002v21.337c0 3.861-3.141 7.002-7.002 7.002h-119.105c-3.861 0-7.002-3.141-7.002-7.002zm0 51.104c0-3.861 3.141-7.002 7.002-7.002h119.105c3.861 0 7.002 3.141 7.002 7.002v21.337c0 3.861-3.141 7.002-7.002 7.002h-119.105c-3.861 0-7.002-3.141-7.002-7.002zm0 51.104c0-3.861 3.141-7.002 7.002-7.002h119.105c3.861 0 7.002 3.141 7.002 7.002v21.337c0 3.861-3.141 7.002-7.002 7.002h-119.105c-3.861 0-7.002-3.141-7.002-7.002zm-225.225-102.208c0-3.861 3.141-7.002 7.002-7.002h119.106c3.861 0 7.002 3.141 7.002 7.002v21.337c0 3.861-3.141 7.002-7.002 7.002h-119.106c-3.861 0-7.002-3.141-7.002-7.002zm0 51.104c0-3.861 3.141-7.002 7.002-7.002h119.106c3.861 0 7.002 3.141 7.002 7.002v21.337c0 3.861-3.141 7.002-7.002 7.002h-119.106c-3.861 0-7.002-3.141-7.002-7.002zm243.372 410.927c3.824 0 6.992 7.863 7.473 11.559h-143.356c.48-3.695 3.648-11.559 7.473-11.559zm-102.818-15v-22.107h77.227v22.107zm212.021-42.018c0 2.708-2.203 4.911-4.91 4.911h-336.996c-2.707 0-4.91-2.203-4.91-4.911v-19.144-1.525h346.816v1.525zm45.819-123.802c0 7.97-6.483 14.454-14.453 14.454h-16.365v-98.648c0-13.536-11.012-24.548-24.548-24.548h-77.034c-4.143 0-7.5 3.358-7.5 7.5s3.357 7.5 7.5 7.5h77.034c5.265 0 9.548 4.283 9.548 9.548v172.327h-346.817v-172.327c0-5.265 4.283-9.548 9.548-9.548h220.686c4.143 0 7.5-3.358 7.5-7.5s-3.357-7.5-7.5-7.5h-220.686c-13.536 0-24.548 11.012-24.548 24.548v98.648h-24.971c-7.97 0-14.454-6.484-14.454-14.454v-194.485c0-7.97 6.484-14.454 14.454-14.454 0 0 18.727-.052 19.212-.151v.319c0 5.735 2.208 10.963 5.815 14.883-3.608 3.92-5.815 9.148-5.815 14.883v21.337c0 12.132 9.87 22.002 22.002 22.002h9.061c4.143 0 7.5-3.358 7.5-7.5s-3.357-7.5-7.5-7.5h-9.061c-3.861 0-7.002-3.141-7.002-7.002v-21.335c0-3.861 3.141-7.002 7.002-7.002h119.106c3.861 0 7.002 3.141 7.002 7.002v21.337c0 3.861-3.141 7.002-7.002 7.002h-80.045c-4.143 0-7.5 3.358-7.5 7.5s3.357 7.5 7.5 7.5h80.045c12.132 0 22.002-9.87 22.002-22.002v-21.337c0-5.735-2.208-10.963-5.815-14.883 3.608-3.92 5.815-9.148 5.815-14.883v-.169h62.115v.169c0 5.735 2.208 10.963 5.815 14.883-3.608 3.92-5.815 9.148-5.815 14.883v21.337c0 12.132 9.87 22.002 22.002 22.002h119.105c12.132 0 22.002-9.87 22.002-22.002v-21.337c0-5.735-2.208-10.963-5.815-14.883 3.608-3.92 5.815-9.148 5.815-14.883v-.169h10.606c7.97 0 14.453 6.484 14.453 14.454v194.484z"></path><path d="m138.103 358.722h-18.171c-4.143 0-7.5 3.358-7.5 7.5s3.357 7.5 7.5 7.5h18.171c4.143 0 7.5-3.358 7.5-7.5s-3.357-7.5-7.5-7.5z"></path><path d="m218.895 358.722h-50.94c-4.143 0-7.5 3.358-7.5 7.5s3.357 7.5 7.5 7.5h50.94c4.143 0 7.5-3.358 7.5-7.5s-3.357-7.5-7.5-7.5z"></path><path d="m266.918 358.722h-18.17c-4.143 0-7.5 3.358-7.5 7.5s3.357 7.5 7.5 7.5h18.17c4.142 0 7.5-3.358 7.5-7.5s-3.358-7.5-7.5-7.5z"></path><path d="m331.326 358.722h-18.171c-4.143 0-7.5 3.358-7.5 7.5s3.357 7.5 7.5 7.5h18.171c4.142 0 7.5-3.358 7.5-7.5s-3.358-7.5-7.5-7.5z"></path><path d="m404.118 358.722h-34.941c-4.142 0-7.5 3.358-7.5 7.5s3.358 7.5 7.5 7.5h34.941c4.142 0 7.5-3.358 7.5-7.5s-3.358-7.5-7.5-7.5z"></path></g></svg>