<svg id="fi_18962438" viewBox="0 0 100 100" xmlns="http://www.w3.org/2000/svg" data-name="Layer 1"><path d="m82.85 14.65h-24.27a2.5 2.5 0 0 0 -2.5 2.5v24.27a2.5 2.5 0 0 0 2.5 2.5h24.27a2.5 2.5 0 0 0 2.5-2.5v-24.27a2.5 2.5 0 0 0 -2.5-2.5zm-2.5 24.27h-19.27v-19.27h19.27z"></path><path d="m41.42 56.08h-24.27a2.5 2.5 0 0 0 -2.5 2.5v24.27a2.5 2.5 0 0 0 2.5 2.5h24.27a2.5 2.5 0 0 0 2.5-2.5v-24.27a2.5 2.5 0 0 0 -2.5-2.5zm-2.5 24.27h-19.27v-19.27h19.27z"></path><path d="m21.86 52.91a2.48 2.48 0 0 0 1 .2 2.51 2.51 0 0 0 1.71-.67l8.32-7.83a2.5 2.5 0 0 0 -3.42-3.61l-4.11 3.86v-15.86a4 4 0 0 1 4-4h22.28a2.5 2.5 0 0 0 0-5h-22.32a9 9 0 0 0 -9 9v21.61a2.51 2.51 0 0 0 1.54 2.3z"></path><path d="m78.29 47.84a2.5 2.5 0 0 0 -2.66.32l-8.32 6.84a2.5 2.5 0 0 0 3.17 3.87l4.24-3.47v15.33a4 4 0 0 1 -4 4h-22.29a2.5 2.5 0 1 0 0 5h22.32a9 9 0 0 0 9-9v-20.63a2.5 2.5 0 0 0 -1.46-2.26z"></path></svg>