<svg id="fi_18490617" viewBox="0 0 512 512" xmlns="http://www.w3.org/2000/svg" data-name="Layer 1"><path d="m222.196 395.284c-7.812-4.51-16.91-5.705-25.615-3.371-17.965 4.818-28.657 23.367-23.837 41.341 2.318 8.688 7.89 15.956 15.69 20.464 5.206 3.009 10.982 4.546 16.836 4.546 2.934 0 5.886-.387 8.795-1.166 17.976-4.822 28.681-23.358 23.863-41.32-2.335-8.707-7.922-15.984-15.733-20.493zm-11.244 50.204c-5.611 1.507-11.473.731-16.505-2.177-5.018-2.899-8.601-7.571-10.093-13.163-3.105-11.58 3.776-23.524 15.34-26.626 1.872-.503 3.772-.751 5.661-.751 3.765 0 7.482.988 10.833 2.922 5.03 2.903 8.629 7.591 10.133 13.197 3.101 11.562-3.793 23.493-15.368 26.598zm280.488-124.522-16.754-1.914c-1.608-5.5-3.807-10.798-6.569-15.828l10.504-13.192c1.904-2.392 1.709-5.831-.452-7.992l-20.126-20.126c-2.16-2.16-5.597-2.356-7.989-.455l-13.217 10.505c-5.004-2.755-10.295-4.952-15.807-6.564l-1.915-16.757c-.347-3.035-2.916-5.327-5.971-5.327h-28.459c-3.055 0-5.624 2.292-5.971 5.327l-1.915 16.755c-1.227.358-2.439.757-3.645 1.174l-20.168-75.273c-.974-3.621-3.134-6.609-5.943-8.679 1.464-3.311 1.762-6.982.814-10.508l-40.279-150.289c-2.272-8.497-11.04-13.558-19.549-11.283l-150.299 40.253c-1.309.352-2.525.874-3.656 1.509l-1.849-6.901c-1.622-6.045-5.504-11.101-10.931-14.234-5.429-3.135-11.744-3.966-17.774-2.344l-75.187 20.151c-4.556 1.206-8.365 4.123-10.727 8.213s-2.986 8.848-1.759 13.379l5.1 19.07c2.498 9.385 12.18 14.988 21.595 12.478l39.276-10.541c2.996-.794 6.084.978 6.88 3.969l71.328 266.132c-25.312 18.289-38.09 50.972-29.545 82.9 9.28 34.572 40.675 57.434 74.886 57.431 6.61 0 13.33-.854 20.011-2.643 31.903-8.563 53.816-35.968 57.01-67.029l54.665-14.645 2.734 2.734c2.163 2.162 5.602 2.356 7.993.452l13.193-10.505c5.03 2.763 10.328 4.961 15.827 6.569l1.915 16.754c.347 3.035 2.916 5.327 5.971 5.327h28.459c3.055 0 5.624-2.292 5.971-5.327l1.915-16.756c5.512-1.613 10.802-3.812 15.807-6.565l13.217 10.506c2.392 1.901 5.828 1.705 7.989-.455l20.126-20.126c2.16-2.16 2.356-5.597.455-7.988l-10.506-13.218c2.754-5.004 4.952-10.295 6.565-15.807l16.756-1.915c3.035-.347 5.327-2.916 5.327-5.971v-28.46c0-3.055-2.292-5.624-5.327-5.971zm-129.426-49.536c-.345.183-.698.347-1.041.535l-13.193-10.504c-2.392-1.904-5.831-1.709-7.993.452l-20.126 20.126c-2.161 2.161-2.356 5.601-.452 7.992l10.504 13.192c-2.762 5.031-4.961 10.329-6.569 15.828l-16.754 1.914c-3.035.347-5.327 2.916-5.327 5.971v28.46c0 3.055 2.292 5.624 5.327 5.971l16.756 1.915c.107.365.237.72.349 1.083l-55.306 14.823c-6.321-8.775-14.472-16.202-24.12-21.774-9.649-5.573-20.157-8.921-30.919-10.008l-29.646-110.661c-.272-1.017-.131-2.082.397-2.998.525-.912 1.371-1.563 2.379-1.833h.004l42.571-11.412 16.649 62.42c1.102 4.16 4.427 7.236 8.749 8.04.66.114 1.317.171 1.964.171 3.636 0 6.985-1.771 9.047-4.889l11.44-17.404 18.602 9.341c3.906 1.984 8.467 1.439 11.898-1.421 3.354-2.795 4.707-7.149 3.544-11.308l-16.781-62.405 42.577-11.413c2.102-.56 4.271.687 4.833 2.78l20.635 77.015zm-79.654-65.27 16.189 60.199-17.277-8.676c-4.901-2.481-11.093-.823-14.087 3.761l-10.647 16.199-16.071-60.253 41.894-11.23zm-60.589-114.224-10.64 16.214-16.075-60.267 41.896-11.221 16.185 60.185-17.333-8.703c-4.9-2.418-11.07-.75-14.034 3.792zm-80.926-29.534 42.601-11.41 16.649 62.418c1.116 4.216 4.457 7.297 8.735 8.042.656.112 1.308.168 1.952.168 3.63 0 6.983-1.751 9.076-4.863l11.438-17.429 18.567 9.323c3.891 2.008 8.596 1.441 11.933-1.403 3.354-2.795 4.707-7.149 3.544-11.308l-16.777-62.388 42.573-11.402c.342-.092.686-.135 1.024-.135 1.743 0 3.339 1.159 3.809 2.915l40.282 150.297c.266.989.124 2.034-.399 2.941-.533.923-1.388 1.581-2.412 1.854l-150.26 40.279c-1.019.272-2.083.13-2.999-.397-.907-.522-1.553-1.36-1.827-2.365l-40.3-150.394c-.506-2.073.73-4.19 2.793-4.745zm-40.535 30.039c-2.497-9.384-12.179-14.981-21.595-12.479l-39.276 10.541c-3.001.8-6.084-.977-6.879-3.965l-5.106-19.095c-.389-1.438-.19-2.945.561-4.245.75-1.299 1.957-2.225 3.414-2.61l75.209-20.156c2.931-.787 6.002-.382 8.646 1.145 2.648 1.529 4.542 3.995 5.333 6.939l5.803 21.655c.015.057.021.114.037.171l40.279 150.289c.003.012.008.024.012.036l33.894 126.489c-5.139.323-10.284 1.157-15.371 2.522-5.116 1.37-9.974 3.227-14.541 5.503zm121.956 395.312c-34.854 9.326-70.821-11.439-80.175-46.291-9.335-34.878 11.431-70.845 46.291-80.176h.004c5.643-1.514 11.368-2.263 17.058-2.263 11.338 0 22.531 2.976 32.616 8.8 15.146 8.746 25.976 22.865 30.497 39.755 9.329 34.854-11.438 70.821-46.29 80.176zm60.398-67.938c-.31-5.094-1.128-10.23-2.498-15.346-1.362-5.088-3.213-9.961-5.503-14.573l53.262-14.276c.569 1.169 1.159 2.328 1.786 3.468l-10.505 13.218c-1.9 2.392-1.705 5.828.455 7.988l7.578 7.578-44.576 11.942zm202.085-69.781-15.507 1.772c-2.519.288-4.586 2.125-5.167 4.593-1.679 7.13-4.479 13.867-8.32 20.023-1.347 2.158-1.189 4.93.394 6.921l9.732 12.244-12.543 12.543-12.244-9.731c-1.991-1.583-4.763-1.739-6.92-.395-6.157 3.842-12.894 6.642-20.023 8.32-2.467.581-4.305 2.648-4.593 5.167l-1.772 15.507h-17.736l-1.772-15.507c-.288-2.521-2.128-4.588-4.598-5.168-7.099-1.666-13.847-4.467-20.057-8.325-2.159-1.342-4.928-1.179-6.915.403l-12.215 9.726-12.54-12.54 9.731-12.244c1.583-1.991 1.74-4.763.394-6.92-3.842-6.157-6.641-12.895-8.32-20.024-.582-2.468-2.648-4.305-5.167-4.593l-15.507-1.772v-17.735l15.507-1.772c2.521-.288 4.589-2.128 5.168-4.598 1.666-7.098 4.467-13.846 8.325-20.058 1.34-2.158 1.179-4.927-.404-6.914l-9.725-12.214 12.537-12.537 12.214 9.725c1.987 1.583 4.755 1.743 6.915.403 6.21-3.858 12.958-6.659 20.056-8.324 2.47-.579 4.31-2.647 4.598-5.168l1.772-15.508h17.736l1.772 15.508c.288 2.519 2.126 4.586 4.594 5.167 7.128 1.678 13.865 4.477 20.022 8.319 2.158 1.347 4.929 1.189 6.92-.395l12.244-9.73 12.54 12.54-9.725 12.214c-1.583 1.987-1.744 4.756-.403 6.914 3.858 6.211 6.659 12.96 8.325 20.058.58 2.47 2.648 4.31 5.168 4.598l15.507 1.772v17.735zm-85.833-60.629c-28.541 0-51.76 23.221-51.76 51.762s23.219 51.732 51.76 51.732 51.732-23.207 51.732-51.732-23.207-51.762-51.732-51.762zm6.009 91.02v-10.43c0-3.319-2.69-6.01-6.009-6.01s-6.009 2.69-6.009 6.01v10.431c-17.111-2.604-30.669-16.152-33.278-33.249h10.459c3.319 0 6.009-2.69 6.009-6.01s-2.69-6.01-6.009-6.01h-10.459c2.607-17.112 16.166-30.671 33.278-33.278v10.459c0 3.319 2.69 6.01 6.009 6.01s6.009-2.69 6.009-6.01v-10.458c17.098 2.608 30.646 16.167 33.25 33.278h-10.431c-3.319 0-6.009 2.69-6.009 6.01s2.69 6.01 6.009 6.01h10.431c-2.606 17.096-16.153 30.643-33.25 33.249zm11.226-39.258c0 3.319-2.69 6.01-6.009 6.01h-11.226c-3.319 0-6.009-2.69-6.009-6.01v-12.529c0-3.319 2.69-6.01 6.009-6.01s6.009 2.69 6.009 6.01v6.52h5.216c3.319 0 6.009 2.69 6.009 6.01z"></path></svg>