<svg id="fi_11293936" enable-background="new 0 0 512 512" height="512" viewBox="0 0 512 512" width="512" xmlns="http://www.w3.org/2000/svg"><path clip-rule="evenodd" d="m141.48 65.488c-1.928-1.951-1.928-5.116 0-7.072 60.234-60.196 156.439-62.989 219.965-8.379l-1.411-33.418c-.094-2.755 2.022-5.088 4.796-5.205 2.727-.108 5.078 2.026 5.172 4.787l1.881 46.617c-.173 1.266-1.268 2.516-1.27 2.52 0 .028-.047.047-.047.071-.493.294-1.397 1.465-3.433 1.542l-45.517 1.914c-2.742.128-5.101-2.053-5.219-4.787-.094-2.755 2.022-5.088 4.796-5.205l33.526-1.411c-59.574-51.07-149.713-48.394-206.139 8.026-1.975 1.956-5.125 1.956-7.1 0zm228.993 381.008c1.975 1.961 1.975 5.121 0 7.077-60.331 60.053-156.267 63.147-219.918 8.379l1.411 33.413c.107 2.816-2.122 5.21-5.031 5.21-2.633 0-4.89-2.102-4.984-4.791l-1.928-45.54c-.027-1.258.735-3.265 1.411-3.667 0-.024.047-.052.047-.08.905-.858 2.1-1.375 3.339-1.462l45.563-1.909c2.727-.099 5.078 2.031 5.172 4.782.141 2.76-2.022 5.088-4.749 5.21l-33.573 1.406c59.623 51.074 149.762 48.404 206.188-8.026 1.927-1.954 5.124-1.954 7.052-.002zm37.334-53.411v-48.639l66.065-27.77v48.638zm-76.127-27.771v-48.638l66.112 27.77v48.639zm71.096-82.715-63.149 26.544 63.149 26.562 63.196-26.562zm78.055 21.945-76.127-31.979c-1.222-.517-2.633-.517-3.856 0l-76.08 31.979c-1.834.78-3.056 2.591-3.056 4.599v59.491c0 2.022 1.223 3.832 3.056 4.613l76.08 31.979c1.247.526 2.611.517 3.856-.009v.009l76.127-31.979c1.834-.781 3.056-2.591 3.056-4.613v-59.491c.001-2.008-1.222-3.819-3.056-4.599zm-73.024-84.422v-48.639l66.065-27.775v48.643zm-76.127-27.771v-48.643l66.112 27.775v48.639zm71.096-82.719-63.149 26.553 63.149 26.553 63.196-26.553zm78.055 21.945-76.127-31.979c-1.222-.517-2.633-.517-3.856 0l-76.08 31.979c-1.834.776-3.056 2.596-3.056 4.608v59.486c0 2.013 1.223 3.832 3.056 4.608l76.08 31.979c1.247.526 2.611.517 3.856-.009v.009l76.127-31.979c1.834-.776 3.056-2.595 3.056-4.608v-59.486c.001-2.013-1.222-3.833-3.056-4.608zm-344.241 173.169h43.259v7.199h-43.259zm-.47 17.2h44.247c5.266 0 9.498-4.26 9.498-9.503v-8.2c0-5.238-4.232-9.503-9.498-9.503h-44.247c-5.219 0-9.498 4.265-9.498 9.503v8.2c-.001 5.243 4.278 9.503 9.498 9.503zm-16.975-28.542c1.975 1.942 1.975 5.106.047 7.072l-22.523 22.768c-1.958 1.979-5.13 1.989-7.1.019l-11.003-11.008c-4.688-4.661 2.428-11.715 7.053-7.072l7.476 7.462 18.996-19.204c1.929-1.964 5.079-1.983 7.054-.037zm17.445-43.884h43.259v7.204h-43.259zm-.47 17.205h44.247c5.266 0 9.498-4.265 9.498-9.508v-8.195c0-5.238-4.232-9.503-9.498-9.503h-44.247c-5.219 0-9.498 4.265-9.498 9.503v8.195c-.001 5.243 4.278 9.508 9.498 9.508zm-16.975-28.547c1.975 1.942 1.975 5.111.047 7.072l-22.523 22.772c-1.957 1.977-5.14 1.979-7.1.019l-11.003-11.008c-4.685-4.664 2.428-11.72 7.053-7.072l7.476 7.458 18.996-19.204c1.929-1.96 5.079-1.979 7.054-.037zm17.445-43.885h43.259v7.204h-43.259zm-.47 17.205h44.247c5.266 0 9.498-4.265 9.498-9.508v-8.19c0-5.243-4.232-9.508-9.498-9.508h-44.247c-5.219 0-9.498 4.265-9.498 9.508v8.191c-.001 5.243 4.278 9.507 9.498 9.507zm-43.025-9.305 18.996-19.199c4.612-4.682 11.717 2.348 7.1 7.03l-22.523 22.777c-1.955 1.97-5.143 1.973-7.1.019l-11.003-11.013c-4.685-4.66 2.426-11.721 7.053-7.072zm-54.967 182.033c0 6.277 5.078 11.389 11.379 11.389h167.959c6.301 0 11.379-5.111 11.379-11.389v-262.209c0-6.282-5.078-11.388-11.379-11.388h-55.626v14.581h47.444c2.774 0 4.984 2.238 4.984 4.998v245.827c0 2.76-2.21 4.998-4.984 4.998h-151.596c-2.774 0-4.984-2.238-4.984-4.998v-245.827c0-2.76 2.21-4.998 4.984-4.998h47.444v-14.581h-55.625c-6.301 0-11.379 5.106-11.379 11.388zm115.436-234.678h-40.156c-4.561 0-8.276-3.71-8.276-8.275v-6.061h-42.46v235.82h141.628v-235.82h-42.46v6.061c0 4.565-3.714 8.275-8.276 8.275zm-38.416-54.897h36.677v44.9h-36.677zm123.713 289.575v-262.209c0-11.793-9.592-21.39-21.395-21.39h-55.626v-7.697c0-4.566-3.715-8.28-8.276-8.28h-40.156c-4.561 0-8.276 3.715-8.276 8.28v7.698h-55.625c-11.802 0-21.394 9.597-21.394 21.39v262.208c0 11.788 9.592 21.39 21.394 21.39h167.959c11.802 0 21.395-9.602 21.395-21.39z" fill-rule="evenodd"></path></svg>