<svg width="22" height="22" viewBox="0 0 22 22" fill="none" xmlns="http://www.w3.org/2000/svg">
<path d="M11 5.09668H20.1667" stroke="#718096" stroke-width="1.5" stroke-miterlimit="10" stroke-linecap="round" stroke-linejoin="round"/>
<path d="M13.035 1.83331H18.1317C19.7633 1.83331 20.1667 2.23665 20.1667 3.84998V7.61748C20.1667 9.23081 19.7633 9.63415 18.1317 9.63415H13.035C11.4033 9.63415 11 9.23081 11 7.61748V3.84998C11 2.23665 11.4033 1.83331 13.035 1.83331Z" stroke="#718096" stroke-width="1.5" stroke-linecap="round" stroke-linejoin="round"/>
<path d="M1.83325 15.6383H10.9999" stroke="#718096" stroke-width="1.5" stroke-miterlimit="10" stroke-linecap="round" stroke-linejoin="round"/>
<path d="M3.86825 12.375H8.96492C10.5966 12.375 10.9999 12.7783 10.9999 14.3917V18.1592C10.9999 19.7725 10.5966 20.1758 8.96492 20.1758H3.86825C2.23659 20.1758 1.83325 19.7725 1.83325 18.1592V14.3917C1.83325 12.7783 2.23659 12.375 3.86825 12.375Z" stroke="#718096" stroke-width="1.5" stroke-linecap="round" stroke-linejoin="round"/>
<path d="M20.1667 13.75C20.1667 17.2975 17.2975 20.1667 13.75 20.1667L14.7125 18.5625" stroke="#718096" stroke-width="1.5" stroke-linecap="round" stroke-linejoin="round"/>
<path d="M1.83325 8.24998C1.83325 4.70248 4.70242 1.83331 8.24992 1.83331L7.28743 3.43748" stroke="#718096" stroke-width="1.5" stroke-linecap="round" stroke-linejoin="round"/>
</svg>
