<svg id="fi_4822436" enable-background="new 0 0 512 512" height="512" viewBox="0 0 512 512" width="512" xmlns="http://www.w3.org/2000/svg"><g id="Layer_48"><g><path d="m65.15 149.072h381.7c29.906 0 54.15 24.244 54.15 54.15v105.556c0 29.906-24.244 54.15-54.15 54.15h-381.7c-29.906 0-54.15-24.244-54.15-54.15v-105.556c0-29.906 24.244-54.15 54.15-54.15z" fill="#f5d367"></path></g><g><path d="m40.328 201.855h.957c5.428 0 9.828 4.4 9.828 9.828v67.897c0 6.025 4.885 10.91 10.91 10.91h9.297c5.428 0 9.828 4.4 9.828 9.828 0 5.427-4.4 9.827-9.828 9.827h-29.91c-6.025 0-10.91-4.885-10.91-10.91v-87.552c0-5.428 4.4-9.828 9.828-9.828z" fill="#f7f5fb"></path></g><g><path d="m152.056 199.267c13.584.912 25.391 6.412 35.42 16.501 11.025 11.091 16.538 24.612 16.538 40.563 0 15.803-5.439 29.177-16.317 40.121-10.351 10.726-24.691 16.671-39.594 16.417-16.255 0-29.76-5.619-40.516-16.858-22.067-22.465-21.745-58.565.72-80.633 2.92-2.868 6.139-5.413 9.604-7.592 10.208-6.345 22.152-9.325 34.145-8.519zm-4.322 20.035c-9.518-.209-18.687 3.583-25.277 10.454-6.829 6.969-10.243 15.828-10.243 26.576 0 11.975 4.299 21.447 12.897 28.416 6.451 5.366 14.6 8.262 22.991 8.171 9.448.139 18.517-3.709 24.982-10.601 6.878-7.067 10.317-15.779 10.318-26.134.213-9.769-3.535-19.209-10.391-26.171-6.538-6.975-15.718-10.865-25.277-10.711z" fill="#f7f5fb"></path></g><g><path d="m316.327 226.538-.833.823c-3.407 3.44-8.829 3.841-12.704.939-7.388-5.881-16.566-9.056-26.009-8.999-10.661 0-19.589 3.534-26.784 10.601-7.043 6.701-10.957 16.046-10.794 25.766-.174 10.04 3.893 19.689 11.201 26.576 7.468 7.264 16.68 10.896 27.636 10.896 7.124 0 13.131-1.497 18.02-4.491 2.702-1.675 5.093-3.807 7.066-6.3 1.671-2.011 1.396-4.996-.615-6.667-.843-.701-1.903-1.087-2.999-1.093h-13.306c-5.346 0-9.681-4.334-9.681-9.681 0-5.346 4.334-9.681 9.681-9.681h40.229c2.546 0 4.632 2.02 4.714 4.564-.002 9.478-2.544 18.782-7.362 26.944-4.496 8.072-11.082 14.785-19.067 19.435-7.803 4.466-16.956 6.699-27.459 6.699-11.239 0-21.263-2.442-30.072-7.325-8.787-4.86-16.031-12.092-20.907-20.87-5.093-8.895-7.747-18.976-7.693-29.226-.194-13.819 4.887-27.193 14.208-37.397 11.238-12.613 25.863-18.919 43.875-18.919 9.073-.07 18.065 1.709 26.428 5.227 4.535 1.986 8.763 4.609 12.555 7.791 4.14 3.403 4.738 9.519 1.335 13.659-.207.254-.429.497-.663.729z" fill="#f7f5fb"></path></g><g><path d="m361.284 201.855c5.651 0 10.233 4.581 10.233 10.233v87.825c0 5.651-4.581 10.233-10.233 10.233s-10.233-4.581-10.233-10.233v-87.825c.001-5.652 4.582-10.233 10.233-10.233z" fill="#f7f5fb"></path></g><g><path d="m407.598 201.855c4.338 0 8.382 2.194 10.746 5.831l42.543 65.43v-60.955c0-5.692 4.614-10.306 10.306-10.306 5.692 0 10.306 4.614 10.306 10.306v85.165c0 7.079-5.739 12.818-12.818 12.818h-.063c-4.334 0-8.374-2.19-10.74-5.822l-42.486-65.218v60.734c0 5.692-4.614 10.306-10.306 10.306-5.692 0-10.306-4.614-10.306-10.306v-85.165c0-7.079 5.739-12.818 12.818-12.818z" fill="#f7f5fb"></path></g><g><path d="m133.48 362.93h-68.33c-29.906-.001-54.149-24.244-54.15-54.15v-105.56c-.001-23.565 15.233-44.427 37.68-51.6 11.541 76.048 40.569 148.381 84.8 211.31z" fill="#e2c061"></path></g><g><path d="m40.328 201.855h.957c5.428 0 9.828 4.4 9.828 9.828v67.897c0 6.025 4.885 10.91 10.91 10.91h9.297c5.428 0 9.828 4.4 9.828 9.828 0 5.427-4.4 9.827-9.828 9.827h-29.91c-6.025 0-10.91-4.885-10.91-10.91v-87.552c0-5.428 4.4-9.828 9.828-9.828z" fill="#e4e3e8"></path></g><g><g><path d="m446.85 368.93h-381.7c-33.166-.001-60.149-26.985-60.15-60.15v-63.78c0-3.314 2.686-6 6-6s6 2.686 6 6v63.78c.001 26.549 21.601 48.148 48.15 48.149h381.7c26.549-.001 48.149-21.601 48.15-48.149v-105.56c-.001-26.549-21.602-48.149-48.15-48.15h-381.7c-23.049 0-42.936 16.429-47.288 39.063-.626 3.255-3.771 5.386-7.025 4.759-3.254-.625-5.385-3.771-4.759-7.025 5.436-28.274 30.279-48.797 59.072-48.797h381.7c33.166.001 60.149 26.984 60.15 60.15v105.56c-.001 33.165-26.984 60.149-60.15 60.15z"></path></g><g><path d="m11 230c-3.313 0-6-2.687-6-6v-10c0-3.313 2.687-6 6-6s6 2.687 6 6v10c0 3.313-2.687 6-6 6z"></path></g><g><path d="m71.32 316.145h-29.91c-9.324 0-16.91-7.585-16.91-16.909v-87.553c0-8.728 7.1-15.828 15.828-15.828h.957c8.728 0 15.828 7.1 15.828 15.828v67.897c0 2.707 2.203 4.91 4.91 4.91h9.297c8.728 0 15.828 7.1 15.828 15.827-.001 8.728-7.101 15.828-15.828 15.828zm-30.992-108.29c-2.11 0-3.828 1.717-3.828 3.828v87.553c0 2.707 2.203 4.909 4.91 4.909h29.91c2.111 0 3.828-1.717 3.828-3.828 0-2.109-1.717-3.826-3.828-3.826h-9.297c-9.324 0-16.91-7.586-16.91-16.91v-67.897c0-2.11-1.717-3.828-3.828-3.828h-.957z"></path></g><g><path d="m149.01 318.877c-.32 0-.638-.003-.958-.008-17.856-.013-32.93-6.307-44.8-18.71-11.741-11.952-18.155-27.835-18.005-44.667s6.846-32.598 18.854-44.394c3.221-3.164 6.792-5.987 10.614-8.391 11.372-7.068 24.416-10.326 37.743-9.426 15.018 1.008 28.232 7.15 39.273 18.258 12.131 12.204 18.282 27.274 18.283 44.792 0 17.371-6.077 32.293-18.062 44.351-11.169 11.575-26.793 18.194-42.942 18.195zm-.86-113.741c-9.579 0-18.872 2.649-27.072 7.746-3.068 1.93-5.959 4.215-8.567 6.776-9.722 9.55-15.143 22.313-15.264 35.94s5.071 26.485 14.621 36.207c9.719 10.154 21.554 15.063 36.235 15.063.034 0 .068 0 .103.001 13.191.24 26.012-5.091 35.174-14.584 9.868-9.93 14.635-21.669 14.635-35.955 0-14.434-4.839-26.319-14.793-36.333-9.049-9.104-19.375-13.927-31.566-14.745-1.173-.077-2.343-.116-3.506-.116zm.441 93.787c-.167 0-.333-.001-.5-.004-.123.002-.247.002-.37.002-9.648 0-19.023-3.386-26.446-9.562-9.974-8.082-15.061-19.211-15.061-33.028 0-12.323 4.022-22.677 11.958-30.775 7.66-7.988 18.449-12.471 29.58-12.255 11.15-.149 21.935 4.423 29.584 12.554 7.899 8.049 12.294 19.12 12.065 30.394-.015 11.877-4.045 22.043-11.979 30.215-7.468 7.938-17.944 12.459-28.831 12.459zm-.488-12.004c.029 0 .059 0 .088.001 7.717.1 15.22-3.06 20.518-8.707.025-.026.05-.053.076-.079 5.798-5.958 8.617-13.138 8.617-21.95 0-.044 0-.087.001-.131.177-8.1-2.982-16.056-8.668-21.829-.035-.036-.069-.071-.103-.107-5.369-5.729-12.949-8.929-20.801-8.815-.077.001-.152.001-.229 0-7.823-.16-15.403 2.966-20.814 8.608-5.785 5.903-8.574 13.222-8.574 22.421 0 10.164 3.492 17.933 10.675 23.755 5.327 4.431 11.983 6.835 18.831 6.835.106 0 .211 0 .317-.002z"></path></g><g><path d="m277.263 318.869c-12.217 0-23.313-2.718-32.981-8.078-9.777-5.406-17.816-13.432-23.244-23.204-5.562-9.714-8.496-20.84-8.447-32.111-.202-15.384 5.4-30.11 15.778-41.471 12.323-13.832 28.592-20.873 48.306-20.873.188-.001.377-.002.565-.002 9.702 0 19.196 1.916 28.188 5.698 5.141 2.25 9.853 5.174 14.086 8.725 3.194 2.625 5.203 6.391 5.611 10.566s-.834 8.259-3.498 11.5c-.333.406-.695.804-1.075 1.18-.002.002-.004.004-.006.006l-.833.824c-5.438 5.493-14.278 6.147-20.519 1.476-.048-.036-.095-.072-.142-.109-6.293-5.01-14.191-7.733-22.235-7.693-9.146 0-16.532 2.905-22.616 8.881-5.879 5.595-9.134 13.365-9 21.385.001.068.001.137 0 .205-.145 8.333 3.251 16.389 9.316 22.105 6.432 6.254 14.103 9.262 23.521 9.262 5.97 0 10.979-1.214 14.886-3.606 1.35-.837 2.603-1.824 3.738-2.944h-10.457c-8.646 0-15.681-7.034-15.681-15.681s7.034-15.681 15.681-15.681h40.229c5.818 0 10.522 4.556 10.71 10.371.002.064.003.129.003.194-.001 10.515-2.821 20.862-8.156 29.928-5.016 8.978-12.363 16.458-21.252 21.634-8.723 4.993-18.965 7.513-30.476 7.513zm-.068-113.739c-.159 0-.317 0-.476.002-16.416 0-29.303 5.532-39.441 16.911-8.374 9.167-12.862 20.981-12.688 33.322v.116c-.048 9.181 2.338 18.245 6.9 26.212 4.373 7.872 10.792 14.281 18.604 18.601 7.873 4.365 17.011 6.576 27.168 6.576 9.394 0 17.63-1.987 24.479-5.907 7.011-4.082 12.836-10.02 16.805-17.146.024-.043.05-.087.075-.13 4.026-6.822 6.264-14.558 6.506-22.458h-38.92c-2.029 0-3.681 1.651-3.681 3.681s1.651 3.681 3.681 3.681h13.306c2.513.014 4.929.895 6.837 2.481 2.202 1.83 3.562 4.412 3.825 7.267.261 2.828-.584 5.59-2.381 7.784-2.405 3.027-5.29 5.594-8.574 7.629-5.849 3.582-12.965 5.39-21.18 5.39-12.521 0-23.227-4.237-31.819-12.595-8.426-7.938-13.192-19.212-13.019-30.878-.161-11.329 4.449-22.299 12.659-30.11 8.254-8.109 18.68-12.254 30.92-12.254 10.699-.047 21.24 3.568 29.657 10.234 1.464 1.057 3.515.895 4.792-.396l.873-.863c.088-.088.173-.18.253-.277 1.298-1.579 1.069-3.918-.509-5.215-3.403-2.854-7.141-5.173-11.152-6.93-7.431-3.129-15.361-4.728-23.5-4.728zm39.132 21.408h.01z"></path></g><g><path d="m361.284 316.145c-8.95 0-16.232-7.282-16.232-16.232v-87.824c0-8.951 7.282-16.233 16.232-16.233s16.232 7.282 16.232 16.233v87.824c.001 8.949-7.282 16.232-16.232 16.232zm0-108.29c-2.334 0-4.232 1.899-4.232 4.233v87.824c0 2.334 1.898 4.232 4.232 4.232s4.232-1.898 4.232-4.232v-87.824c.001-2.334-1.898-4.233-4.232-4.233z"></path></g><g><path d="m468.682 316.145c-6.451 0-12.345-3.195-15.83-8.547l-31.459-48.29v40.531c0 8.991-7.315 16.306-16.307 16.306s-16.306-7.314-16.306-16.306v-85.166c0-10.376 8.441-18.818 18.817-18.818 6.395 0 12.292 3.2 15.776 8.561l31.514 48.466v-40.721c0-8.991 7.314-16.306 16.306-16.306s16.307 7.315 16.307 16.306v85.166c0 10.376-8.441 18.818-18.818 18.818zm-53.289-83.041c1.99 0 3.899.994 5.027 2.726l42.486 65.218c1.263 1.939 3.398 3.097 5.712 3.097 3.823 0 6.882-3.059 6.882-6.817v-85.166c0-2.375-1.932-4.306-4.307-4.306-2.374 0-4.306 1.932-4.306 4.306v60.955c0 2.656-1.747 4.997-4.294 5.752-2.547.758-5.287-.254-6.736-2.481l-42.544-65.43c-1.263-1.942-3.399-3.102-5.716-3.102-3.759 0-6.817 3.059-6.817 6.818v85.166c0 2.374 1.932 4.306 4.306 4.306 2.375 0 4.307-1.932 4.307-4.306v-60.734c0-2.656 1.746-4.996 4.292-5.751.564-.169 1.139-.251 1.708-.251z"></path></g><g><path d="m256 129.848c-3.313 0-6-2.687-6-6v-89.279c0-3.313 2.687-6 6-6s6 2.687 6 6v89.279c0 3.314-2.687 6-6 6z"></path></g><g><path d="m355.24 129.848c-1.535 0-3.071-.586-4.242-1.757-2.344-2.343-2.344-6.142 0-8.485l63.13-63.13c2.342-2.343 6.143-2.343 8.484 0 2.344 2.343 2.344 6.142 0 8.485l-63.13 63.13c-1.17 1.171-2.707 1.757-4.242 1.757z"></path></g><g><path d="m156.76 129.848c-1.536 0-3.071-.585-4.243-1.757l-63.13-63.13c-2.343-2.343-2.343-6.142 0-8.485s6.142-2.343 8.485 0l63.13 63.13c2.343 2.343 2.343 6.142 0 8.485-1.171 1.171-2.707 1.757-4.242 1.757z"></path></g><g><path d="m256 483.431c-3.313 0-6-2.687-6-6v-89.278c0-3.313 2.687-6 6-6s6 2.687 6 6v89.278c0 3.313-2.687 6-6 6z"></path></g><g><path d="m418.37 457.282c-1.535 0-3.071-.586-4.242-1.758l-63.13-63.13c-2.344-2.343-2.344-6.142 0-8.484 2.342-2.344 6.143-2.344 8.484 0l63.13 63.13c2.344 2.343 2.344 6.142 0 8.484-1.171 1.172-2.707 1.758-4.242 1.758z"></path></g><g><path d="m93.63 457.282c-1.536 0-3.071-.586-4.243-1.758-2.343-2.343-2.343-6.142 0-8.484l63.13-63.13c2.343-2.344 6.143-2.344 8.485 0 2.343 2.343 2.343 6.142 0 8.484l-63.13 63.13c-1.171 1.172-2.706 1.758-4.242 1.758z"></path></g></g></g></svg>